<svg xmlns="http://www.w3.org/2000/svg" viewBox="0 0 223 243" aria-label="Timbuk2 logo icon refined">
  <path d="M 49.01 18.02 C 46.59 18.18, 44.33 18.75, 41.94 18.98 C 39.54 19.22, 36.93 18.93, 34.65 19.43 C 32.37 19.94, 30.22 20.77, 28.25 22.01 C 26.27 23.26, 24.49 25.24, 22.80 26.91 C 21.11 28.58, 19.42 30.14, 18.12 32.02 C 16.82 33.90, 15.70 36.00, 15.01 38.20 C 14.32 40.41, 14.15 42.83, 13.98 45.25 C 13.81 47.67, 14.00 50.23, 14.00 52.73 C 14.00 55.22, 14.00 57.71, 14.00 60.20 C 14.00 62.69, 14.00 65.18, 14.00 67.67 C 14.00 70.16, 14.00 72.65, 14.00 75.14 C 14.00 77.63, 14.00 80.12, 14.00 82.61 C 14.00 85.10, 13.74 87.84, 14.00 90.08 C 14.26 92.32, 14.19 95.39, 15.56 96.04 C 16.93 96.70, 19.91 94.51, 22.20 94.01 C 24.49 93.52, 27.01 93.59, 29.28 93.08 C 31.56 92.57, 33.59 91.46, 35.87 90.95 C 38.15 90.44, 40.66 90.49, 42.97 90.04 C 45.27 89.60, 47.43 88.79, 49.71 88.28 C 51.99 87.77, 54.37 87.52, 56.63 86.97 C 58.90 86.41, 60.98 85.44, 63.28 84.96 C 65.57 84.48, 68.10 84.60, 70.38 84.08 C 72.66 83.57, 74.78 82.67, 76.95 81.90 C 79.12 81.13, 81.89 80.83, 83.40 79.46 C 84.91 78.10, 85.71 75.86, 85.99 73.72 C 86.26 71.59, 85.54 68.93, 85.04 66.65 C 84.54 64.37, 83.71 62.22, 82.97 60.04 C 82.23 57.85, 81.41 55.70, 80.58 53.56 C 79.75 51.41, 78.74 49.34, 77.98 47.16 C 77.22 44.99, 76.69 42.72, 76.00 40.51 C 75.32 38.30, 74.66 36.09, 73.90 33.91 C 73.14 31.74, 72.26 29.61, 71.45 27.46 C 70.64 25.30, 70.35 22.41, 69.04 21.00 C 67.72 19.58, 65.63 19.49, 63.53 18.99 C 61.44 18.50, 58.89 18.19, 56.46 18.03 C 54.04 17.86, 51.43 17.86, 49.01 18.02 Z" fill="#4b2ec6"/> <path d="M 93.02 18.02 C 91.96 19.24, 94.20 23.20, 95.03 25.70 C 95.85 28.21, 97.05 30.56, 97.97 33.03 C 98.89 35.50, 99.70 38.01, 100.54 40.51 C 101.38 43.01, 102.08 45.57, 103.00 48.04 C 103.91 50.51, 105.02 52.89, 106.02 55.33 C 107.03 57.76, 107.82 60.27, 109.04 62.62 C 110.26 64.97, 111.38 67.88, 113.34 69.44 C 115.31 71.00, 118.22 71.74, 120.82 72.00 C 123.43 72.27, 126.33 71.54, 128.97 71.04 C 131.61 70.55, 134.11 69.71, 136.68 69.02 C 139.24 68.34, 141.75 67.51, 144.36 66.95 C 146.98 66.39, 149.73 66.15, 152.38 65.66 C 155.02 65.17, 157.64 64.63, 160.23 64.01 C 162.82 63.38, 165.33 62.55, 167.91 61.93 C 170.50 61.30, 173.12 60.74, 175.77 60.26 C 178.41 59.77, 181.17 59.54, 183.79 59.00 C 186.42 58.46, 188.94 57.68, 191.51 57.01 C 194.08 56.34, 196.58 55.51, 199.21 54.98 C 201.85 54.45, 205.85 55.41, 207.32 53.83 C 208.79 52.25, 208.24 48.17, 208.03 45.50 C 207.82 42.83, 206.93 40.27, 206.04 37.78 C 205.16 35.30, 204.22 32.75, 202.72 30.62 C 201.22 28.48, 199.12 26.58, 197.03 24.97 C 194.94 23.36, 192.60 21.94, 190.16 20.95 C 187.73 19.96, 185.02 19.44, 182.41 19.04 C 179.80 18.64, 177.08 18.56, 174.51 18.54 C 171.94 18.52, 169.59 19.02, 166.98 18.93 C 164.37 18.84, 161.65 18.15, 158.87 17.99 C 156.09 17.84, 153.17 18.00, 150.32 18.01 C 147.47 18.01, 144.62 18.00, 141.78 18.00 C 138.93 18.00, 136.09 18.01, 133.24 18.00 C 130.38 17.99, 127.38 17.94, 124.67 17.94 C 121.96 17.94, 119.54 18.00, 116.97 18.00 C 114.41 17.99, 111.86 17.84, 109.27 17.90 C 106.67 17.96, 104.10 18.36, 101.39 18.37 C 98.68 18.39, 94.08 16.80, 93.02 18.02 Z" fill="#4b2ec6"/> <path d="M 207.02 76.03 C 205.32 74.86, 200.96 78.18, 197.82 79.00 C 194.69 79.83, 191.42 80.31, 188.21 80.96 C 185.01 81.61, 181.75 82.13, 178.61 82.92 C 175.46 83.71, 172.46 84.86, 169.34 85.70 C 166.21 86.54, 163.04 87.28, 159.86 87.99 C 156.68 88.70, 153.40 89.14, 150.26 89.96 C 147.13 90.78, 144.16 92.01, 141.05 92.89 C 137.94 93.77, 134.12 93.50, 131.61 95.25 C 129.09 97.01, 126.74 100.38, 125.97 103.41 C 125.19 106.45, 126.13 110.32, 126.96 113.45 C 127.79 116.59, 129.72 119.26, 130.95 122.22 C 132.18 125.18, 133.16 128.25, 134.33 131.24 C 135.51 134.22, 136.90 137.12, 138.01 140.14 C 139.12 143.15, 140.00 146.26, 140.99 149.32 C 141.98 152.39, 142.77 155.53, 143.94 158.52 C 145.10 161.51, 146.74 164.31, 147.97 167.27 C 149.20 170.24, 150.14 173.32, 151.32 176.31 C 152.50 179.29, 153.88 182.19, 155.04 185.19 C 156.19 188.18, 157.10 191.28, 158.26 194.27 C 159.41 197.27, 159.85 201.35, 161.99 203.14 C 164.14 204.93, 167.96 204.85, 171.15 205.00 C 174.34 205.14, 177.89 204.50, 181.15 204.00 C 184.42 203.49, 187.77 203.15, 190.73 201.96 C 193.69 200.77, 196.56 199.01, 198.94 196.85 C 201.31 194.68, 203.44 191.79, 204.95 188.95 C 206.47 186.11, 207.51 183.06, 208.01 179.80 C 208.52 176.53, 208.00 172.84, 208.00 169.37 C 208.00 165.90, 208.00 162.42, 208.00 158.95 C 208.00 155.48, 208.00 152.00, 208.00 148.53 C 208.00 145.06, 208.00 141.58, 208.00 138.11 C 208.00 134.64, 208.00 131.16, 208.00 127.69 C 208.00 124.21, 208.00 120.74, 208.00 117.27 C 208.00 113.79, 208.00 110.32, 208.00 106.85 C 208.00 103.37, 208.00 99.90, 208.00 96.43 C 208.00 92.95, 208.17 89.41, 208.00 86.01 C 207.84 82.61, 208.71 77.19, 207.02 76.03 Z" fill="#4b2ec6"/> <path d="M 71.01 101.01 C 67.87 101.51, 65.06 102.83, 62.20 104.02 C 59.35 105.22, 56.74 107.02, 53.87 108.18 C 51.00 109.33, 47.93 110.01, 44.97 110.96 C 42.01 111.90, 39.16 113.11, 36.12 113.85 C 33.07 114.59, 29.77 114.70, 26.71 115.39 C 23.64 116.09, 19.86 116.44, 17.74 118.02 C 15.62 119.61, 14.62 122.08, 14.00 124.90 C 13.37 127.72, 14.00 131.60, 14.00 134.95 C 14.00 138.31, 14.00 141.65, 14.00 145.00 C 14.00 148.35, 14.00 151.70, 14.00 155.06 C 14.00 158.41, 14.00 161.76, 14.00 165.11 C 14.00 168.46, 13.67 171.95, 14.01 175.15 C 14.35 178.36, 15.04 181.43, 16.05 184.36 C 17.05 187.30, 18.19 190.18, 20.01 192.77 C 21.83 195.36, 24.80 197.98, 26.96 199.91 C 29.13 201.84, 32.35 202.06, 33.01 204.33 C 33.67 206.61, 30.62 210.62, 30.94 213.56 C 31.25 216.51, 32.78 220.09, 34.91 221.99 C 37.05 223.90, 40.73 224.82, 43.74 225.00 C 46.76 225.19, 50.34 224.52, 53.00 223.08 C 55.67 221.64, 58.04 218.91, 59.75 216.36 C 61.45 213.81, 61.26 209.65, 63.23 207.76 C 65.20 205.86, 68.50 205.46, 71.57 205.00 C 74.63 204.54, 78.27 205.00, 81.62 205.00 C 84.97 205.00, 88.32 205.00, 91.67 205.00 C 95.02 205.00, 98.37 205.00, 101.72 205.00 C 105.07 205.00, 108.42 205.00, 111.77 205.00 C 115.12 205.00, 118.47 205.00, 121.82 205.00 C 125.17 205.00, 130.17 206.18, 131.87 205.00 C 133.57 203.82, 132.59 200.51, 132.01 197.90 C 131.43 195.29, 129.54 192.22, 128.38 189.35 C 127.21 186.49, 126.13 183.59, 125.04 180.68 C 123.96 177.78, 122.98 174.83, 121.87 171.95 C 120.76 169.06, 118.60 166.27, 118.37 163.36 C 118.15 160.45, 119.91 157.54, 120.51 154.49 C 121.12 151.44, 121.92 148.23, 122.00 145.05 C 122.09 141.87, 121.68 138.49, 121.01 135.41 C 120.35 132.34, 119.26 129.44, 118.01 126.60 C 116.77 123.77, 115.37 120.99, 113.54 118.40 C 111.71 115.81, 109.44 113.14, 107.04 111.06 C 104.63 108.99, 101.90 107.29, 99.10 105.95 C 96.31 104.62, 93.27 103.85, 90.26 103.04 C 87.24 102.22, 84.23 101.41, 81.02 101.08 C 77.81 100.74, 74.14 100.52, 71.01 101.01 Z M 54.98 182.98 C 56.23 182.31, 58.02 183.01, 59.54 183.52 C 61.07 184.03, 63.47 184.84, 64.12 186.03 C 64.76 187.21, 63.92 189.09, 63.41 190.63 C 62.91 192.16, 61.81 193.69, 61.07 195.25 C 60.34 196.81, 59.70 198.41, 59.01 199.99 C 58.32 201.57, 57.66 203.16, 56.93 204.72 C 56.20 206.28, 55.41 207.81, 54.62 209.35 C 53.82 210.88, 53.15 212.49, 52.18 213.93 C 51.21 215.37, 50.30 217.32, 48.80 218.01 C 47.30 218.69, 44.81 218.56, 43.19 218.03 C 41.57 217.50, 39.77 216.15, 39.08 214.83 C 38.40 213.51, 38.81 211.72, 39.09 210.12 C 39.36 208.51, 39.91 206.74, 40.72 205.22 C 41.53 203.69, 42.98 202.43, 43.94 200.96 C 44.90 199.50, 45.62 197.93, 46.48 196.42 C 47.35 194.92, 48.21 193.41, 49.13 191.93 C 50.05 190.44, 51.01 189.01, 51.99 187.52 C 52.96 186.03, 53.72 183.64, 54.98 182.98 Z M 78.38 112.58 a 31.44 31.44 0 1 0 0 62.89 a 31.44 31.44 0 1 0 0 -62.89 Z" fill="#4b2ec6" fill-rule="evenodd"/> <circle cx="78.16" cy="143.77" r="26.94" fill="#4b2ec6"/>
</svg>
